G75*
G70*
%OFA0B0*%
%FSLAX24Y24*%
%IPPOS*%
%LPD*%
%AMOC8*
5,1,8,0,0,1.08239X$1,22.5*
%
%ADD10C,0.0000*%
%ADD11C,0.0030*%
D10*
X000981Y001135D02*
X000981Y036764D01*
X021650Y036764D01*
X021650Y001135D01*
X000981Y001135D01*
X001218Y001922D02*
X001220Y001969D01*
X001226Y002015D01*
X001236Y002061D01*
X001249Y002106D01*
X001267Y002149D01*
X001288Y002191D01*
X001312Y002231D01*
X001340Y002268D01*
X001371Y002303D01*
X001405Y002336D01*
X001441Y002365D01*
X001480Y002391D01*
X001521Y002414D01*
X001564Y002433D01*
X001608Y002449D01*
X001653Y002461D01*
X001699Y002469D01*
X001746Y002473D01*
X001792Y002473D01*
X001839Y002469D01*
X001885Y002461D01*
X001930Y002449D01*
X001974Y002433D01*
X002017Y002414D01*
X002058Y002391D01*
X002097Y002365D01*
X002133Y002336D01*
X002167Y002303D01*
X002198Y002268D01*
X002226Y002231D01*
X002250Y002191D01*
X002271Y002149D01*
X002289Y002106D01*
X002302Y002061D01*
X002312Y002015D01*
X002318Y001969D01*
X002320Y001922D01*
X002318Y001875D01*
X002312Y001829D01*
X002302Y001783D01*
X002289Y001738D01*
X002271Y001695D01*
X002250Y001653D01*
X002226Y001613D01*
X002198Y001576D01*
X002167Y001541D01*
X002133Y001508D01*
X002097Y001479D01*
X002058Y001453D01*
X002017Y001430D01*
X001974Y001411D01*
X001930Y001395D01*
X001885Y001383D01*
X001839Y001375D01*
X001792Y001371D01*
X001746Y001371D01*
X001699Y001375D01*
X001653Y001383D01*
X001608Y001395D01*
X001564Y001411D01*
X001521Y001430D01*
X001480Y001453D01*
X001441Y001479D01*
X001405Y001508D01*
X001371Y001541D01*
X001340Y001576D01*
X001312Y001613D01*
X001288Y001653D01*
X001267Y001695D01*
X001249Y001738D01*
X001236Y001783D01*
X001226Y001829D01*
X001220Y001875D01*
X001218Y001922D01*
X003209Y003816D02*
X003211Y003864D01*
X003217Y003912D01*
X003227Y003959D01*
X003240Y004005D01*
X003258Y004050D01*
X003278Y004094D01*
X003303Y004136D01*
X003331Y004175D01*
X003361Y004212D01*
X003395Y004246D01*
X003432Y004278D01*
X003470Y004307D01*
X003511Y004332D01*
X003554Y004354D01*
X003599Y004372D01*
X003645Y004386D01*
X003692Y004397D01*
X003740Y004404D01*
X003788Y004407D01*
X003836Y004406D01*
X003884Y004401D01*
X003932Y004392D01*
X003978Y004380D01*
X004023Y004363D01*
X004067Y004343D01*
X004109Y004320D01*
X004149Y004293D01*
X004187Y004263D01*
X004222Y004230D01*
X004254Y004194D01*
X004284Y004156D01*
X004310Y004115D01*
X004332Y004072D01*
X004352Y004028D01*
X004367Y003983D01*
X004379Y003936D01*
X004387Y003888D01*
X004391Y003840D01*
X004391Y003792D01*
X004387Y003744D01*
X004379Y003696D01*
X004367Y003649D01*
X004352Y003604D01*
X004332Y003560D01*
X004310Y003517D01*
X004284Y003476D01*
X004254Y003438D01*
X004222Y003402D01*
X004187Y003369D01*
X004149Y003339D01*
X004109Y003312D01*
X004067Y003289D01*
X004023Y003269D01*
X003978Y003252D01*
X003932Y003240D01*
X003884Y003231D01*
X003836Y003226D01*
X003788Y003225D01*
X003740Y003228D01*
X003692Y003235D01*
X003645Y003246D01*
X003599Y003260D01*
X003554Y003278D01*
X003511Y003300D01*
X003470Y003325D01*
X003432Y003354D01*
X003395Y003386D01*
X003361Y003420D01*
X003331Y003457D01*
X003303Y003496D01*
X003278Y003538D01*
X003258Y003582D01*
X003240Y003627D01*
X003227Y003673D01*
X003217Y003720D01*
X003211Y003768D01*
X003209Y003816D01*
X003209Y022005D02*
X003211Y022053D01*
X003217Y022101D01*
X003227Y022148D01*
X003240Y022194D01*
X003258Y022239D01*
X003278Y022283D01*
X003303Y022325D01*
X003331Y022364D01*
X003361Y022401D01*
X003395Y022435D01*
X003432Y022467D01*
X003470Y022496D01*
X003511Y022521D01*
X003554Y022543D01*
X003599Y022561D01*
X003645Y022575D01*
X003692Y022586D01*
X003740Y022593D01*
X003788Y022596D01*
X003836Y022595D01*
X003884Y022590D01*
X003932Y022581D01*
X003978Y022569D01*
X004023Y022552D01*
X004067Y022532D01*
X004109Y022509D01*
X004149Y022482D01*
X004187Y022452D01*
X004222Y022419D01*
X004254Y022383D01*
X004284Y022345D01*
X004310Y022304D01*
X004332Y022261D01*
X004352Y022217D01*
X004367Y022172D01*
X004379Y022125D01*
X004387Y022077D01*
X004391Y022029D01*
X004391Y021981D01*
X004387Y021933D01*
X004379Y021885D01*
X004367Y021838D01*
X004352Y021793D01*
X004332Y021749D01*
X004310Y021706D01*
X004284Y021665D01*
X004254Y021627D01*
X004222Y021591D01*
X004187Y021558D01*
X004149Y021528D01*
X004109Y021501D01*
X004067Y021478D01*
X004023Y021458D01*
X003978Y021441D01*
X003932Y021429D01*
X003884Y021420D01*
X003836Y021415D01*
X003788Y021414D01*
X003740Y021417D01*
X003692Y021424D01*
X003645Y021435D01*
X003599Y021449D01*
X003554Y021467D01*
X003511Y021489D01*
X003470Y021514D01*
X003432Y021543D01*
X003395Y021575D01*
X003361Y021609D01*
X003331Y021646D01*
X003303Y021685D01*
X003278Y021727D01*
X003258Y021771D01*
X003240Y021816D01*
X003227Y021862D01*
X003217Y021909D01*
X003211Y021957D01*
X003209Y022005D01*
X001218Y035977D02*
X001220Y036024D01*
X001226Y036070D01*
X001236Y036116D01*
X001249Y036161D01*
X001267Y036204D01*
X001288Y036246D01*
X001312Y036286D01*
X001340Y036323D01*
X001371Y036358D01*
X001405Y036391D01*
X001441Y036420D01*
X001480Y036446D01*
X001521Y036469D01*
X001564Y036488D01*
X001608Y036504D01*
X001653Y036516D01*
X001699Y036524D01*
X001746Y036528D01*
X001792Y036528D01*
X001839Y036524D01*
X001885Y036516D01*
X001930Y036504D01*
X001974Y036488D01*
X002017Y036469D01*
X002058Y036446D01*
X002097Y036420D01*
X002133Y036391D01*
X002167Y036358D01*
X002198Y036323D01*
X002226Y036286D01*
X002250Y036246D01*
X002271Y036204D01*
X002289Y036161D01*
X002302Y036116D01*
X002312Y036070D01*
X002318Y036024D01*
X002320Y035977D01*
X002318Y035930D01*
X002312Y035884D01*
X002302Y035838D01*
X002289Y035793D01*
X002271Y035750D01*
X002250Y035708D01*
X002226Y035668D01*
X002198Y035631D01*
X002167Y035596D01*
X002133Y035563D01*
X002097Y035534D01*
X002058Y035508D01*
X002017Y035485D01*
X001974Y035466D01*
X001930Y035450D01*
X001885Y035438D01*
X001839Y035430D01*
X001792Y035426D01*
X001746Y035426D01*
X001699Y035430D01*
X001653Y035438D01*
X001608Y035450D01*
X001564Y035466D01*
X001521Y035485D01*
X001480Y035508D01*
X001441Y035534D01*
X001405Y035563D01*
X001371Y035596D01*
X001340Y035631D01*
X001312Y035668D01*
X001288Y035708D01*
X001267Y035750D01*
X001249Y035793D01*
X001236Y035838D01*
X001226Y035884D01*
X001220Y035930D01*
X001218Y035977D01*
X020312Y035977D02*
X020314Y036024D01*
X020320Y036070D01*
X020330Y036116D01*
X020343Y036161D01*
X020361Y036204D01*
X020382Y036246D01*
X020406Y036286D01*
X020434Y036323D01*
X020465Y036358D01*
X020499Y036391D01*
X020535Y036420D01*
X020574Y036446D01*
X020615Y036469D01*
X020658Y036488D01*
X020702Y036504D01*
X020747Y036516D01*
X020793Y036524D01*
X020840Y036528D01*
X020886Y036528D01*
X020933Y036524D01*
X020979Y036516D01*
X021024Y036504D01*
X021068Y036488D01*
X021111Y036469D01*
X021152Y036446D01*
X021191Y036420D01*
X021227Y036391D01*
X021261Y036358D01*
X021292Y036323D01*
X021320Y036286D01*
X021344Y036246D01*
X021365Y036204D01*
X021383Y036161D01*
X021396Y036116D01*
X021406Y036070D01*
X021412Y036024D01*
X021414Y035977D01*
X021412Y035930D01*
X021406Y035884D01*
X021396Y035838D01*
X021383Y035793D01*
X021365Y035750D01*
X021344Y035708D01*
X021320Y035668D01*
X021292Y035631D01*
X021261Y035596D01*
X021227Y035563D01*
X021191Y035534D01*
X021152Y035508D01*
X021111Y035485D01*
X021068Y035466D01*
X021024Y035450D01*
X020979Y035438D01*
X020933Y035430D01*
X020886Y035426D01*
X020840Y035426D01*
X020793Y035430D01*
X020747Y035438D01*
X020702Y035450D01*
X020658Y035466D01*
X020615Y035485D01*
X020574Y035508D01*
X020535Y035534D01*
X020499Y035563D01*
X020465Y035596D01*
X020434Y035631D01*
X020406Y035668D01*
X020382Y035708D01*
X020361Y035750D01*
X020343Y035793D01*
X020330Y035838D01*
X020320Y035884D01*
X020314Y035930D01*
X020312Y035977D01*
X020312Y001922D02*
X020314Y001969D01*
X020320Y002015D01*
X020330Y002061D01*
X020343Y002106D01*
X020361Y002149D01*
X020382Y002191D01*
X020406Y002231D01*
X020434Y002268D01*
X020465Y002303D01*
X020499Y002336D01*
X020535Y002365D01*
X020574Y002391D01*
X020615Y002414D01*
X020658Y002433D01*
X020702Y002449D01*
X020747Y002461D01*
X020793Y002469D01*
X020840Y002473D01*
X020886Y002473D01*
X020933Y002469D01*
X020979Y002461D01*
X021024Y002449D01*
X021068Y002433D01*
X021111Y002414D01*
X021152Y002391D01*
X021191Y002365D01*
X021227Y002336D01*
X021261Y002303D01*
X021292Y002268D01*
X021320Y002231D01*
X021344Y002191D01*
X021365Y002149D01*
X021383Y002106D01*
X021396Y002061D01*
X021406Y002015D01*
X021412Y001969D01*
X021414Y001922D01*
X021412Y001875D01*
X021406Y001829D01*
X021396Y001783D01*
X021383Y001738D01*
X021365Y001695D01*
X021344Y001653D01*
X021320Y001613D01*
X021292Y001576D01*
X021261Y001541D01*
X021227Y001508D01*
X021191Y001479D01*
X021152Y001453D01*
X021111Y001430D01*
X021068Y001411D01*
X021024Y001395D01*
X020979Y001383D01*
X020933Y001375D01*
X020886Y001371D01*
X020840Y001371D01*
X020793Y001375D01*
X020747Y001383D01*
X020702Y001395D01*
X020658Y001411D01*
X020615Y001430D01*
X020574Y001453D01*
X020535Y001479D01*
X020499Y001508D01*
X020465Y001541D01*
X020434Y001576D01*
X020406Y001613D01*
X020382Y001653D01*
X020361Y001695D01*
X020343Y001738D01*
X020330Y001783D01*
X020320Y001829D01*
X020314Y001875D01*
X020312Y001922D01*
D11*
X005986Y013219D02*
X005924Y013157D01*
X005801Y013157D01*
X005739Y013219D01*
X005617Y013157D02*
X005617Y013528D01*
X005739Y013466D02*
X005801Y013528D01*
X005924Y013528D01*
X005986Y013466D01*
X005986Y013219D01*
X005617Y013343D02*
X005371Y013343D01*
X005249Y013404D02*
X005002Y013404D01*
X005002Y013281D02*
X005249Y013281D01*
X005371Y013157D02*
X005371Y013528D01*
X004881Y013466D02*
X004881Y013219D01*
X004819Y013157D01*
X004696Y013157D01*
X004634Y013219D01*
X004513Y013219D02*
X004451Y013281D01*
X004266Y013281D01*
X004266Y013343D02*
X004266Y013157D01*
X004451Y013157D01*
X004513Y013219D01*
X004451Y013404D02*
X004327Y013404D01*
X004266Y013343D01*
X004144Y013343D02*
X004082Y013404D01*
X003897Y013404D01*
X003776Y013343D02*
X003714Y013404D01*
X003591Y013404D01*
X003529Y013343D01*
X003529Y013281D01*
X003776Y013281D01*
X003776Y013219D02*
X003776Y013343D01*
X003776Y013219D02*
X003714Y013157D01*
X003591Y013157D01*
X003821Y012875D02*
X003883Y012937D01*
X004068Y012937D01*
X004068Y012567D01*
X003883Y012567D01*
X003821Y012629D01*
X003821Y012875D01*
X003959Y013157D02*
X003897Y013219D01*
X003959Y013281D01*
X004082Y013281D01*
X004144Y013343D01*
X004144Y013157D02*
X003959Y013157D01*
X004189Y012937D02*
X004436Y012937D01*
X004436Y012567D01*
X004189Y012567D01*
X004313Y012752D02*
X004436Y012752D01*
X004558Y012567D02*
X004805Y012567D01*
X004805Y012937D01*
X004881Y013466D02*
X004819Y013528D01*
X004696Y013528D01*
X004634Y013466D01*
X004558Y013748D02*
X004805Y013748D01*
X004805Y014118D01*
X004819Y014339D02*
X004696Y014339D01*
X004634Y014400D01*
X004513Y014400D02*
X004451Y014462D01*
X004266Y014462D01*
X004266Y014524D02*
X004266Y014339D01*
X004451Y014339D01*
X004513Y014400D01*
X004451Y014585D02*
X004327Y014585D01*
X004266Y014524D01*
X004144Y014524D02*
X004082Y014585D01*
X003897Y014585D01*
X003776Y014524D02*
X003714Y014585D01*
X003591Y014585D01*
X003529Y014524D01*
X003529Y014462D01*
X003776Y014462D01*
X003776Y014400D02*
X003776Y014524D01*
X003776Y014400D02*
X003714Y014339D01*
X003591Y014339D01*
X003821Y014057D02*
X003883Y014118D01*
X004068Y014118D01*
X004068Y013748D01*
X003883Y013748D01*
X003821Y013810D01*
X003821Y014057D01*
X003959Y014339D02*
X003897Y014400D01*
X003959Y014462D01*
X004082Y014462D01*
X004144Y014524D01*
X004144Y014339D02*
X003959Y014339D01*
X004189Y014118D02*
X004436Y014118D01*
X004436Y013748D01*
X004189Y013748D01*
X004313Y013933D02*
X004436Y013933D01*
X004819Y014339D02*
X004881Y014400D01*
X004881Y014647D01*
X004819Y014709D01*
X004696Y014709D01*
X004634Y014647D01*
X004718Y014929D02*
X004656Y014991D01*
X004718Y015053D01*
X004841Y015053D01*
X004903Y015114D01*
X004841Y015176D01*
X004656Y015176D01*
X004535Y015176D02*
X004535Y014991D01*
X004473Y014929D01*
X004411Y014991D01*
X004350Y014929D01*
X004288Y014991D01*
X004288Y015176D01*
X004166Y015176D02*
X004105Y015176D01*
X004105Y014929D01*
X004166Y014929D02*
X004043Y014929D01*
X003859Y014991D02*
X003798Y014929D01*
X003859Y014991D02*
X003859Y015238D01*
X003798Y015176D02*
X003921Y015176D01*
X004105Y015299D02*
X004105Y015361D01*
X004144Y015520D02*
X003959Y015520D01*
X003897Y015581D01*
X003959Y015643D01*
X004082Y015643D01*
X004144Y015705D01*
X004082Y015766D01*
X003897Y015766D01*
X003776Y015705D02*
X003714Y015766D01*
X003591Y015766D01*
X003529Y015705D01*
X003529Y015643D01*
X003776Y015643D01*
X003776Y015581D02*
X003776Y015705D01*
X003776Y015581D02*
X003714Y015520D01*
X003591Y015520D01*
X003614Y015176D02*
X003429Y015176D01*
X003307Y015114D02*
X003245Y015176D01*
X003122Y015176D01*
X003060Y015114D01*
X003060Y014929D01*
X003039Y014709D02*
X002854Y014709D01*
X002792Y014647D01*
X002792Y014524D01*
X002854Y014462D01*
X003039Y014462D01*
X003039Y014339D02*
X003039Y014709D01*
X003307Y014929D02*
X003307Y015299D01*
X003429Y014929D02*
X003614Y014929D01*
X003675Y014991D01*
X003675Y015114D01*
X003614Y015176D01*
X004266Y015520D02*
X004451Y015520D01*
X004513Y015581D01*
X004451Y015643D01*
X004266Y015643D01*
X004266Y015705D02*
X004266Y015520D01*
X004266Y015705D02*
X004327Y015766D01*
X004451Y015766D01*
X004634Y015828D02*
X004696Y015890D01*
X004819Y015890D01*
X004881Y015828D01*
X004881Y015581D01*
X004819Y015520D01*
X004696Y015520D01*
X004634Y015581D01*
X005002Y015643D02*
X005249Y015643D01*
X005371Y015643D02*
X005371Y015581D01*
X005432Y015520D01*
X005556Y015520D01*
X005617Y015581D01*
X005739Y015581D02*
X005801Y015520D01*
X005924Y015520D01*
X005986Y015581D01*
X005986Y015828D01*
X005924Y015890D01*
X005801Y015890D01*
X005739Y015828D01*
X005617Y015828D02*
X005617Y015766D01*
X005556Y015705D01*
X005432Y015705D01*
X005371Y015643D01*
X005249Y015766D02*
X005002Y015766D01*
X005002Y016110D02*
X005002Y016357D01*
X005126Y016480D01*
X005249Y016357D01*
X005249Y016110D01*
X005249Y016295D02*
X005002Y016295D01*
X004881Y016480D02*
X004881Y016110D01*
X004634Y016110D01*
X004513Y016234D02*
X004266Y016234D01*
X004266Y016357D02*
X004513Y016357D01*
X004635Y016701D02*
X004635Y016762D01*
X004388Y017009D01*
X004388Y017071D01*
X004635Y017071D01*
X004757Y016948D02*
X005004Y016948D01*
X005125Y016948D02*
X005125Y017009D01*
X005187Y017071D01*
X005310Y017071D01*
X005372Y017009D01*
X005493Y017009D02*
X005555Y017071D01*
X005679Y017071D01*
X005740Y017009D01*
X005740Y016762D01*
X005679Y016701D01*
X005555Y016701D01*
X005493Y016762D01*
X005372Y016701D02*
X005125Y016948D01*
X005004Y016824D02*
X004757Y016824D01*
X005125Y016701D02*
X005372Y016701D01*
X005371Y016480D02*
X005617Y016480D01*
X005739Y016480D02*
X005986Y016110D01*
X005739Y016110D02*
X005986Y016480D01*
X005986Y016701D02*
X005862Y016701D01*
X005924Y016701D02*
X005924Y017071D01*
X005986Y017071D02*
X005862Y017071D01*
X005494Y016480D02*
X005494Y016110D01*
X005432Y015890D02*
X005371Y015828D01*
X005432Y015890D02*
X005556Y015890D01*
X005617Y015828D01*
X005617Y014709D02*
X005432Y014709D01*
X005371Y014647D01*
X005371Y014524D01*
X005432Y014462D01*
X005617Y014462D01*
X005617Y014339D02*
X005617Y014709D01*
X005739Y014647D02*
X005801Y014709D01*
X005924Y014709D01*
X005986Y014647D01*
X005986Y014400D01*
X005924Y014339D01*
X005801Y014339D01*
X005739Y014400D01*
X005249Y014462D02*
X005002Y014462D01*
X005002Y014585D02*
X005249Y014585D01*
X004903Y014929D02*
X004718Y014929D01*
X004144Y016110D02*
X003897Y016110D01*
X004021Y016110D02*
X004021Y016480D01*
X004144Y016357D01*
X004082Y016701D02*
X004082Y017071D01*
X004267Y016886D01*
X004020Y016886D01*
X003899Y017071D02*
X003899Y016701D01*
X003652Y016701D01*
X003530Y016762D02*
X003469Y016701D01*
X003345Y016701D01*
X003283Y016762D01*
X003283Y016824D01*
X003345Y016886D01*
X003469Y016886D01*
X003530Y016948D01*
X003530Y017009D01*
X003469Y017071D01*
X003345Y017071D01*
X003283Y017009D01*
X003162Y017009D02*
X003100Y017071D01*
X002977Y017071D01*
X002915Y017009D01*
X002915Y016948D01*
X003162Y016701D01*
X002915Y016701D01*
X002794Y016886D02*
X002547Y016886D01*
X002425Y016886D02*
X002302Y016948D01*
X002240Y016948D01*
X002179Y016886D01*
X002179Y016762D01*
X002240Y016701D01*
X002364Y016701D01*
X002425Y016762D01*
X002425Y016886D02*
X002425Y017071D01*
X002179Y017071D01*
X002057Y017071D02*
X001810Y016701D01*
X001810Y017071D01*
X002057Y017071D02*
X002057Y016701D01*
X002056Y016357D02*
X002303Y016110D01*
X002056Y016110D01*
X002056Y016357D02*
X002303Y016357D01*
X002424Y016295D02*
X002424Y016110D01*
X002424Y016295D02*
X002486Y016357D01*
X002609Y016357D01*
X002671Y016295D01*
X002671Y016480D02*
X002671Y016110D01*
X002792Y016110D02*
X002792Y016480D01*
X002916Y016357D01*
X003039Y016480D01*
X003039Y016110D01*
X002609Y016701D02*
X002609Y017071D01*
X002794Y016886D01*
X003318Y017415D02*
X003503Y017415D01*
X003624Y017415D02*
X003624Y017353D01*
X003686Y017291D01*
X003809Y017291D01*
X003871Y017353D01*
X003871Y017415D01*
X003809Y017476D01*
X003686Y017476D01*
X003624Y017415D01*
X003686Y017476D02*
X003624Y017538D01*
X003624Y017600D01*
X003686Y017662D01*
X003809Y017662D01*
X003871Y017600D01*
X003871Y017538D01*
X003809Y017476D01*
X003993Y017538D02*
X003993Y017600D01*
X004054Y017662D01*
X004178Y017662D01*
X004240Y017600D01*
X004361Y017600D02*
X004361Y017538D01*
X004423Y017476D01*
X004361Y017415D01*
X004361Y017353D01*
X004423Y017291D01*
X004546Y017291D01*
X004608Y017353D01*
X004484Y017476D02*
X004423Y017476D01*
X004361Y017600D02*
X004423Y017662D01*
X004546Y017662D01*
X004608Y017600D01*
X004635Y017882D02*
X004635Y018129D01*
X004512Y018252D01*
X004388Y018129D01*
X004388Y017882D01*
X004388Y018067D02*
X004635Y018067D01*
X004757Y018129D02*
X005004Y018129D01*
X005004Y018005D02*
X004757Y018005D01*
X005125Y017882D02*
X005372Y017882D01*
X005248Y017882D02*
X005248Y018252D01*
X005372Y018129D01*
X005493Y018190D02*
X005555Y018252D01*
X005679Y018252D01*
X005740Y018190D01*
X005740Y017944D01*
X005679Y017882D01*
X005555Y017882D01*
X005493Y017944D01*
X005862Y017882D02*
X005986Y017882D01*
X005924Y017882D02*
X005924Y018252D01*
X005986Y018252D02*
X005862Y018252D01*
X005801Y018472D02*
X005739Y018534D01*
X005801Y018472D02*
X005924Y018472D01*
X005986Y018534D01*
X005986Y018781D01*
X005924Y018843D01*
X005801Y018843D01*
X005739Y018781D01*
X005617Y018658D02*
X005371Y018658D01*
X005249Y018719D02*
X005002Y018719D01*
X004881Y018719D02*
X004757Y018843D01*
X004757Y018472D01*
X004634Y018472D02*
X004881Y018472D01*
X005002Y018596D02*
X005249Y018596D01*
X005432Y018472D02*
X005432Y018843D01*
X005617Y018658D01*
X005556Y019063D02*
X005617Y019125D01*
X005556Y019063D02*
X005432Y019063D01*
X005371Y019125D01*
X005371Y019186D01*
X005432Y019248D01*
X005494Y019248D01*
X005432Y019248D02*
X005371Y019310D01*
X005371Y019372D01*
X005432Y019433D01*
X005556Y019433D01*
X005617Y019372D01*
X005739Y019372D02*
X005801Y019433D01*
X005924Y019433D01*
X005986Y019372D01*
X005986Y019125D01*
X005924Y019063D01*
X005801Y019063D01*
X005739Y019125D01*
X005801Y019653D02*
X005739Y019715D01*
X005801Y019653D02*
X005924Y019653D01*
X005986Y019715D01*
X005986Y019962D01*
X005924Y020024D01*
X005801Y020024D01*
X005739Y019962D01*
X005617Y019900D02*
X005494Y020024D01*
X005494Y019653D01*
X005617Y019653D02*
X005371Y019653D01*
X005249Y019653D02*
X005002Y020024D01*
X004881Y019962D02*
X004881Y019715D01*
X004819Y019653D01*
X004696Y019653D01*
X004634Y019715D01*
X004513Y019653D02*
X004266Y019900D01*
X004266Y019962D01*
X004327Y020024D01*
X004451Y020024D01*
X004513Y019962D01*
X004634Y019962D02*
X004696Y020024D01*
X004819Y020024D01*
X004881Y019962D01*
X004881Y020244D02*
X004634Y020244D01*
X004513Y020244D02*
X004513Y020614D01*
X004327Y020491D02*
X004513Y020367D01*
X004327Y020244D01*
X004144Y019900D02*
X003897Y019900D01*
X003897Y019777D02*
X004144Y019777D01*
X004266Y019653D02*
X004513Y019653D01*
X004451Y019433D02*
X004327Y019433D01*
X004266Y019372D01*
X004513Y019125D01*
X004451Y019063D01*
X004327Y019063D01*
X004266Y019125D01*
X004266Y019372D01*
X004144Y019310D02*
X004144Y019125D01*
X004082Y019063D01*
X003897Y019063D01*
X003897Y019310D01*
X003776Y019248D02*
X003652Y019248D01*
X003776Y019433D02*
X003529Y019433D01*
X003529Y019653D02*
X003776Y019653D01*
X003529Y019900D01*
X003529Y019962D01*
X003591Y020024D01*
X003714Y020024D01*
X003776Y019962D01*
X003776Y020244D02*
X003837Y020306D01*
X003837Y020429D01*
X003776Y020491D01*
X003652Y020491D01*
X003590Y020429D01*
X003590Y020306D01*
X003652Y020244D01*
X003776Y020244D01*
X003469Y020244D02*
X003469Y020614D01*
X003407Y020491D02*
X003284Y020491D01*
X003222Y020429D01*
X003222Y020244D01*
X003101Y020244D02*
X003101Y020491D01*
X003039Y020491D01*
X002977Y020429D01*
X002916Y020491D01*
X002854Y020429D01*
X002854Y020244D01*
X002977Y020244D02*
X002977Y020429D01*
X002978Y020835D02*
X003039Y020896D01*
X002792Y021143D01*
X002792Y020896D01*
X002854Y020835D01*
X002978Y020835D01*
X003039Y020896D02*
X003039Y021143D01*
X002978Y021205D01*
X002854Y021205D01*
X002792Y021143D01*
X003161Y021143D02*
X003161Y021081D01*
X003222Y021020D01*
X003161Y020958D01*
X003161Y020896D01*
X003222Y020835D01*
X003346Y020835D01*
X003408Y020896D01*
X003529Y020896D02*
X003591Y020835D01*
X003714Y020835D01*
X003776Y020896D01*
X003897Y020958D02*
X004144Y020958D01*
X004144Y021081D02*
X003897Y021081D01*
X003776Y021143D02*
X003714Y021205D01*
X003591Y021205D01*
X003529Y021143D01*
X003529Y021081D01*
X003591Y021020D01*
X003529Y020958D01*
X003529Y020896D01*
X003591Y021020D02*
X003652Y021020D01*
X003408Y021143D02*
X003346Y021205D01*
X003222Y021205D01*
X003161Y021143D01*
X003222Y021020D02*
X003284Y021020D01*
X003407Y020491D02*
X003469Y020429D01*
X003346Y020024D02*
X003408Y019962D01*
X003346Y020024D02*
X003222Y020024D01*
X003161Y019962D01*
X003161Y019900D01*
X003408Y019653D01*
X003161Y019653D01*
X003039Y019653D02*
X002854Y019653D01*
X002792Y019715D01*
X002792Y019839D01*
X002854Y019900D01*
X003039Y019900D01*
X003039Y019530D01*
X002671Y019653D02*
X002671Y020024D01*
X002424Y020024D01*
X002548Y019839D02*
X002671Y019839D01*
X002241Y020835D02*
X002303Y020896D01*
X002303Y021020D01*
X002241Y021081D01*
X002117Y021081D01*
X002056Y021020D01*
X002056Y020896D01*
X002117Y020835D01*
X002241Y020835D01*
X001934Y020835D02*
X001934Y021205D01*
X001873Y021081D02*
X001749Y021081D01*
X001687Y021020D01*
X001687Y020835D01*
X001566Y020835D02*
X001566Y021081D01*
X001504Y021081D01*
X001443Y021020D01*
X001381Y021081D01*
X001319Y021020D01*
X001319Y020835D01*
X001443Y020835D02*
X001443Y021020D01*
X001873Y021081D02*
X001934Y021020D01*
X003161Y018843D02*
X003408Y018843D01*
X003408Y018472D01*
X003529Y018472D02*
X003529Y018719D01*
X003408Y018658D02*
X003284Y018658D01*
X003529Y018472D02*
X003714Y018472D01*
X003776Y018534D01*
X003776Y018719D01*
X003897Y018781D02*
X003897Y018534D01*
X003959Y018472D01*
X004082Y018472D01*
X004144Y018534D01*
X003897Y018781D01*
X003959Y018843D01*
X004082Y018843D01*
X004144Y018781D01*
X004144Y018534D01*
X004266Y018534D02*
X004327Y018472D01*
X004451Y018472D01*
X004513Y018534D01*
X004266Y018781D01*
X004266Y018534D01*
X004513Y018534D02*
X004513Y018781D01*
X004451Y018843D01*
X004327Y018843D01*
X004266Y018781D01*
X004513Y019125D02*
X004513Y019372D01*
X004451Y019433D01*
X004757Y019433D02*
X004757Y019063D01*
X004634Y019063D02*
X004881Y019063D01*
X005002Y019186D02*
X005249Y019186D01*
X005249Y019310D02*
X005002Y019310D01*
X004881Y019310D02*
X004757Y019433D01*
X004757Y020244D02*
X004757Y020614D01*
X004881Y020491D01*
X005002Y020491D02*
X005249Y020491D01*
X005249Y020367D02*
X005002Y020367D01*
X005371Y020367D02*
X005432Y020429D01*
X005617Y020429D01*
X005617Y020306D01*
X005556Y020244D01*
X005432Y020244D01*
X005371Y020306D01*
X005371Y020367D01*
X005494Y020553D02*
X005371Y020614D01*
X005494Y020553D02*
X005617Y020429D01*
X005739Y020429D02*
X005801Y020367D01*
X005986Y020367D01*
X005986Y020244D02*
X005986Y020614D01*
X005801Y020614D01*
X005739Y020553D01*
X005739Y020429D01*
X005862Y020367D02*
X005739Y020244D01*
X005739Y020835D02*
X005862Y020958D01*
X005801Y020958D02*
X005986Y020958D01*
X005986Y020835D02*
X005986Y021205D01*
X005801Y021205D01*
X005739Y021143D01*
X005739Y021020D01*
X005801Y020958D01*
X005617Y020835D02*
X005371Y020835D01*
X005494Y020835D02*
X005494Y021205D01*
X005617Y021081D01*
X005249Y021020D02*
X005002Y021020D01*
X004881Y020958D02*
X004696Y020958D01*
X004634Y021020D01*
X004634Y021143D01*
X004696Y021205D01*
X004881Y021205D01*
X004881Y020835D01*
X004757Y020958D02*
X004634Y020835D01*
X004513Y020896D02*
X004451Y020835D01*
X004327Y020835D01*
X004266Y020896D01*
X004266Y021020D01*
X004327Y021081D01*
X004389Y021081D01*
X004513Y021020D01*
X004513Y021205D01*
X004266Y021205D01*
X003776Y019433D02*
X003776Y019063D01*
X003899Y018252D02*
X003775Y018129D01*
X003652Y018252D01*
X003652Y017882D01*
X003530Y017882D02*
X003530Y018252D01*
X003283Y018252D01*
X003162Y018190D02*
X003162Y017944D01*
X003100Y017882D01*
X002977Y017882D01*
X002915Y017944D01*
X002915Y018067D01*
X003039Y018067D01*
X003162Y018190D02*
X003100Y018252D01*
X002977Y018252D01*
X002915Y018190D01*
X002794Y018129D02*
X002794Y017882D01*
X002794Y018067D02*
X002547Y018067D01*
X002547Y018129D02*
X002547Y017882D01*
X002547Y018129D02*
X002670Y018252D01*
X002794Y018129D01*
X003283Y017882D02*
X003530Y017882D01*
X003530Y018067D02*
X003407Y018067D01*
X003318Y017662D02*
X003256Y017600D01*
X003256Y017476D01*
X003318Y017415D01*
X003503Y017291D02*
X003503Y017662D01*
X003318Y017662D01*
X003899Y017882D02*
X003899Y018252D01*
X004020Y018252D02*
X004267Y018252D01*
X004144Y018252D02*
X004144Y017882D01*
X003993Y017538D02*
X004240Y017291D01*
X003993Y017291D01*
X003529Y016480D02*
X003652Y016419D01*
X003776Y016295D01*
X003591Y016295D01*
X003529Y016234D01*
X003529Y016172D01*
X003591Y016110D01*
X003714Y016110D01*
X003776Y016172D01*
X003776Y016295D01*
X002671Y014709D02*
X002671Y014339D01*
X002548Y014462D01*
X002424Y014339D01*
X002424Y014709D01*
X002303Y014709D02*
X002303Y014339D01*
X002303Y014462D02*
X002117Y014462D01*
X002056Y014524D01*
X002056Y014647D01*
X002117Y014709D01*
X002303Y014709D01*
X002179Y014462D02*
X002056Y014339D01*
X002117Y013528D02*
X002056Y013466D01*
X002056Y013219D01*
X002117Y013157D01*
X002303Y013157D01*
X002303Y013528D01*
X002117Y013528D01*
X002424Y013466D02*
X002424Y013219D01*
X002486Y013157D01*
X002671Y013157D01*
X002671Y013528D01*
X002486Y013528D01*
X002424Y013466D01*
X002792Y013528D02*
X002792Y013157D01*
X002792Y013343D02*
X003039Y013343D01*
X003039Y013528D02*
X003039Y013157D01*
M02*
