%
M48
M72
T01C0.0236
T02C0.0276
T03C0.0300
T04C0.0320
T05C0.0354
T06C0.0400
T07C0.0472
T08C0.0709
T09C0.0910
T10C0.1102
T11C0.1181
%
T01
X10824Y18949
X13875Y16784
T02
X7020Y25442
X6020Y25442
X6654Y28575
X6654Y30575
X8288Y30981
X9288Y30981
X9257Y28670
X8257Y28670
X13174Y2910
X14174Y2910
T03
X10135Y16099
X10135Y18068
X17713Y26477
X17713Y28446
X17713Y29879
X17713Y31847
X17745Y33249
X17745Y35217
X7871Y34548
X7871Y32579
X6394Y32631
X5115Y32631
X5115Y34599
X6394Y34599
T04
X10997Y34115
X10997Y33115
X10997Y32115
X10997Y31115
X10997Y30115
X10997Y29115
X10997Y28115
X10997Y27115
X10997Y26115
X10997Y25115
X10997Y24115
X10997Y23115
X10997Y22115
X10997Y21115
X11729Y18201
X11729Y17201
X11729Y16201
X11729Y15201
X11729Y14201
X11729Y13201
X11729Y12201
X11729Y11201
X11729Y10201
X11729Y9201
X14729Y9201
X14729Y10201
X14729Y11201
X14729Y12201
X14729Y13201
X14729Y14201
X14729Y15201
X14729Y16201
X14729Y17201
X14729Y18201
X13997Y21115
X13997Y22115
X13997Y23115
X13997Y24115
X13997Y25115
X13997Y26115
X13997Y27115
X13997Y28115
X13997Y29115
X13997Y30115
X13997Y31115
X13997Y32115
X13997Y33115
X13997Y34115
X19544Y34012
X20544Y34012
X20548Y30666
X19548Y30666
X19560Y27320
X20560Y27320
T05
X16304Y25827
X16304Y24827
X16304Y23827
X15304Y23827
X15304Y24827
X15304Y25827
T06
X15580Y27052
X15580Y28052
X15580Y29052
X15580Y30052
X15580Y31052
X15580Y32052
X15580Y33052
X15580Y34052
X9481Y33914
X9481Y32914
X9312Y35942
X8312Y35942
X6993Y35942
X5993Y35942
X4686Y35914
X3686Y35914
X8922Y26658
X8922Y25658
X8922Y24658
X10367Y14430
X10367Y13430
X10367Y12430
X10367Y11430
X10367Y10430
X10367Y9430
X16009Y9398
X16009Y10398
X16009Y11398
X16009Y12398
X16009Y13398
X16009Y14398
X17509Y14268
X17509Y15268
X17509Y16268
X17509Y17268
X17509Y18268
X17509Y19268
X17509Y20268
X17509Y21268
X17509Y22268
X17509Y23268
X17509Y24268
X18509Y24268
X18509Y23268
X18509Y22268
X18509Y21268
X18509Y20268
X18509Y19268
X18509Y18268
X18509Y17268
X18509Y16268
X18509Y15268
X18509Y14268
X18509Y13268
X18509Y12268
X18509Y11268
X17509Y11268
X17509Y12268
X17509Y13268
X19922Y13268
X19922Y12268
X19922Y11268
X20922Y11268
X20922Y12268
X20922Y13268
X20922Y14268
X20922Y15268
X20922Y16268
X20922Y17268
X20922Y18268
X20922Y19268
X20922Y20268
X20922Y21268
X20922Y22268
X20922Y23268
X20922Y24268
X19922Y24268
X19922Y23268
X19922Y22268
X19922Y21268
X19922Y20268
X19922Y19268
X19922Y18268
X19922Y17268
X19922Y16268
X19922Y15268
X19922Y14268
T07
X2709Y25624
X2709Y27142
X2709Y28730
X2709Y30248
X2709Y31836
X2709Y33354
T08
X6674Y22005
X6674Y20351
X6674Y18698
X6674Y17044
X6674Y15390
X6674Y13737
X6674Y12083
X6674Y10430
X6674Y8776
X6674Y7123
X6674Y5469
X6674Y3816
X8839Y3816
X8839Y5469
X8839Y7123
X8839Y8776
X8839Y10430
X8839Y12083
X8839Y13737
X8839Y15390
X8839Y17044
X8839Y18698
X8839Y20351
X8839Y22005
T09
X17438Y7936
X17438Y2766
T10
X1769Y1922
X20863Y1922
X20863Y35977
X1769Y35977
T11
X3800Y22005
X3800Y3816
M30
